<?xml version="1.0" standalone="no"?>
<!DOCTYPE svg PUBLIC "-//W3C//DTD SVG 20010904//EN"
 "http://www.w3.org/TR/2001/REC-SVG-20010904/DTD/svg10.dtd">
<svg version="1.0" xmlns="http://www.w3.org/2000/svg"
 width="183.000000pt" height="183.000000pt" viewBox="0 0 183.000000 183.000000"
 preserveAspectRatio="xMidYMid meet">
<metadata>
Created by potrace 1.14, written by Peter Selinger 2001-2017
</metadata>
<g transform="translate(0.000000,183.000000) scale(0.100000,-0.100000)"
fill="#000000" stroke="none">
<path d="M559 1735 c-1 -3 -3 -9 -4 -15 -1 -5 -3 -14 -4 -19 -1 -7 -47 -23
-76 -25 -17 -2 -87 -64 -121 -108 -19 -24 -45 -78 -38 -78 4 0 1 -6 -5 -14 -6
-7 -39 -21 -74 -30 -44 -12 -77 -29 -107 -56 -39 -34 -44 -44 -48 -92 -7 -91
9 -130 95 -227 18 -20 37 -48 44 -63 6 -16 15 -28 20 -28 5 0 24 -24 42 -52
62 -96 80 -111 131 -112 26 -1 50 4 54 9 4 6 18 15 32 21 20 9 31 6 66 -15 23
-14 47 -39 54 -56 7 -16 22 -41 32 -54 10 -13 18 -33 18 -45 0 -11 9 -32 20
-46 11 -14 20 -28 20 -32 0 -11 51 -83 58 -83 25 -2 50 -20 72 -52 14 -20 44
-55 67 -77 41 -40 42 -43 46 -118 4 -73 18 -112 52 -143 17 -16 34 -18 132
-19 89 0 94 2 123 29 32 30 41 67 43 177 1 34 4 62 7 60 3 -1 14 -5 25 -8 18
-4 20 -12 17 -78 -3 -59 1 -82 17 -113 28 -56 42 -64 118 -68 96 -6 128 2 168
42 38 38 42 55 35 178 -1 22 -1 71 0 109 1 38 -3 72 -8 75 -13 9 -32 47 -32
65 0 8 -5 27 -12 43 -6 15 -12 34 -14 42 -5 24 -48 63 -92 83 -24 11 -48 30
-54 43 -9 21 -7 27 13 44 21 17 26 18 41 4 14 -13 20 -13 47 2 18 9 31 23 31
35 0 10 4 21 9 24 14 9 4 135 -14 172 -9 19 -14 38 -11 42 7 12 -18 39 -39 43
-31 6 -114 137 -115 180 0 45 -14 63 -70 87 -76 33 -82 35 -175 37 -73 2 -97
7 -128 25 -29 17 -48 21 -81 18 l-43 -5 -22 51 c-12 28 -34 65 -49 81 -31 35
-101 75 -129 75 -11 0 -28 7 -39 15 -25 19 -53 19 -60 0 -6 -14 -11 -13 -41 5
-36 21 -42 23 -44 15z"/>
</g>
</svg>
